<svg width="285" height="109" viewBox="0 0 285 109" fill="none" xmlns="http://www.w3.org/2000/svg">
<g clip-path="url(#clip0)">
<path d="M49.5027 12.5537C49.5027 10.4821 52.5651 10.4821 52.5651 12.5537V40.3855V41.9167H51.0339C48.3318 41.9167 45.7197 42.5471 43.8283 43.628C42.6573 44.2585 41.6666 45.1592 41.0361 46.0599C40.4056 47.0507 40.0453 48.1315 40.0453 49.3024C40.0453 50.6535 40.4056 52.0946 41.3063 53.8059C41.9368 54.7066 42.3871 55.6974 42.7474 56.6882C43.0176 57.679 43.1978 58.6697 43.2878 59.7506C43.5581 62.903 41.1262 65.1548 38.334 67.947C35.6319 70.6491 32.3893 73.7115 31.3986 78.215C30.0475 84.0696 32.9297 88.3029 37.7935 91.005C42.0269 93.2568 47.6112 94.3376 53.2857 94.3376C58.9601 94.2475 64.6345 93.0766 68.9579 90.7348C70.6692 89.8341 72.1104 88.6632 73.2813 87.4022H77.0642C75.533 89.8341 73.2813 91.8156 70.399 93.4369C65.7154 95.9589 59.5005 97.3099 53.3757 97.4C47.1609 97.4 41.0361 96.139 36.3524 93.617C30.3177 90.3745 26.7149 85.0604 28.4262 77.4944C29.6872 72.1803 33.2 68.7576 36.1723 65.7853C38.5141 63.5335 40.4056 61.7321 40.2254 59.9307V59.8407C40.2254 59.1201 40.0453 58.3995 39.8652 57.679C39.595 56.9584 39.2347 56.1478 38.7843 55.3371H38.6943C37.5233 53.1754 36.9829 51.1939 36.9829 49.3024C36.9829 47.501 37.5233 45.7897 38.5141 44.3486C39.4148 42.9975 40.7659 41.8266 42.2971 41.0159C44.3687 39.845 46.8006 39.1245 49.5027 38.9443V12.5537ZM103.275 59.3903V60.8314C98.9513 62.1825 94.9882 63.8938 90.3946 64.7945C89.4039 64.5243 88.4131 64.2541 87.4223 63.8938C93.1868 63.3534 97.9606 61.1016 103.275 59.3903ZM103.275 64.164V65.6052C99.852 66.686 96.5194 68.0371 92.9166 69.0278L92.3762 67.7668C96.1591 66.8661 99.5818 65.3349 103.275 64.164ZM103.275 68.9378V70.3789C100.483 71.2796 97.6903 72.3604 94.8081 73.2611L94.4478 72.3604L94.2677 72.0002C97.3301 71.0995 100.302 69.9285 103.275 68.9378ZM103.275 73.7115V75.1526C101.113 75.8732 98.9513 76.6838 96.6996 77.4044L96.1591 76.2335C98.591 75.4228 100.933 74.5221 103.275 73.7115ZM51.5743 70.469V69.0278C52.475 68.7576 53.3757 68.4874 54.1864 68.2172C54.2764 68.6676 54.3665 69.1179 54.4566 69.4782C53.5559 69.7484 52.6552 70.1087 51.5743 70.469ZM51.5743 65.6952V64.3442C54.2764 63.3534 56.4381 62.813 58.4197 62.7229C57.1587 63.0832 56.1679 63.7137 55.4473 64.5243C54.2764 64.7945 53.0154 65.1548 51.5743 65.6952ZM51.5743 60.9215V59.5704C54.2764 58.5797 56.5282 58.0392 58.5097 57.9492L59.3204 59.2102C57.1587 59.2102 54.7268 59.7506 51.5743 60.9215ZM51.5743 56.1478V54.7967C53.1956 54.1662 54.6367 53.8059 55.9878 53.5357L56.6183 54.7066C55.1771 54.9769 53.4658 55.4272 51.5743 56.1478ZM61.0317 63.6236C61.9324 63.6236 62.8331 63.8038 63.6437 64.164L55.4473 50.1131C55.0871 49.4826 55.9878 48.9421 56.348 49.5726L57.4289 51.284C66.0756 49.4826 64.6345 54.5265 69.9487 55.4272C70.9394 56.0577 68.6877 56.8683 66.0756 55.6073C63.1934 54.2563 62.0225 53.7159 59.3204 54.5265L65.8955 65.8754C67.9671 69.4782 64.5444 72.0902 61.0317 72.0902C53.6459 72.0902 53.6459 63.6236 61.0317 63.6236ZM92.106 78.1249C93.0067 78.1249 93.9074 78.3051 94.6279 78.5753L91.8358 72.5406L79.5862 68.7576L83.0089 76.4136C84.2699 79.2058 81.0273 81.0973 78.5954 81.0973C72.3806 81.0973 72.3806 74.1618 78.5954 74.1618C79.4961 74.1618 80.3068 74.342 81.0273 74.7023L75.7132 62.813L75.2628 61.7321L76.4337 62.0924C80.9373 63.4435 85.6209 64.7945 90.2145 66.0555L90.3046 66.3257C92.3762 71.0094 94.5379 75.7831 96.6095 80.4668C97.6003 83.259 94.5379 84.9703 92.106 84.9703C85.8911 84.9703 85.8911 78.1249 92.106 78.1249ZM67.3366 70.1087C69.4983 71.7299 71.2097 73.5314 73.5515 75.0625C73.2813 75.4228 73.0111 75.7831 72.921 76.1434C70.4891 74.7023 68.7778 72.8108 66.526 71.1895C66.8863 70.8292 67.0664 70.469 67.3366 70.1087ZM84.5401 78.3952C85.6209 78.3952 86.6117 78.3051 87.7826 78.215C87.2422 78.6654 86.8819 79.1157 86.6117 79.6561C85.711 79.6561 84.9003 79.7462 83.9996 79.6561C84.2699 79.2959 84.45 78.8455 84.5401 78.3952ZM69.4082 57.4988C70.6692 58.6697 71.9302 59.6605 73.3713 60.6513L74.0919 62.2726L74.272 62.7229C71.3898 61.1016 69.5884 59.3002 67.1565 57.3187C67.877 57.4988 68.6877 57.5889 69.4082 57.4988ZM63.1033 58.3995C68.4175 60.0208 71.2097 64.6144 76.1635 66.9562L76.9742 68.7576C71.2097 66.5059 68.6877 62.2726 64.1842 60.2009L63.1033 58.3995ZM67.0664 65.1548C71.2097 68.1271 73.2813 71.0094 78.7756 72.7207V72.9009C78.7756 72.9009 78.6855 72.9009 78.5954 72.9009C77.6947 72.9009 76.8841 72.9909 76.2536 73.1711C72.7408 71.7299 70.6692 69.7484 67.877 67.4066C67.787 66.686 67.5168 65.9654 67.0664 65.1548ZM83.0989 73.5314C85.2606 73.7115 87.3322 73.5314 89.584 73.1711L90.9351 73.6214L91.2053 74.1618C88.5932 74.7023 86.1613 74.9725 83.7294 74.8824L83.0989 73.5314ZM67.4267 47.9514C69.2281 43.7181 69.5884 42.1869 69.048 41.9167C68.6877 41.7365 66.7962 42.7273 64.9047 43.7181C62.653 44.889 60.4012 46.0599 58.5998 45.8797C56.7083 45.7897 55.6275 44.6188 55.8076 41.6464V31.5586C55.8076 29.577 58.87 29.577 58.87 31.5586V41.6464V41.7365C58.7799 42.5471 58.87 42.9074 58.87 42.9074C59.7707 42.9975 61.6622 42.0067 63.5537 41.0159C66.0756 39.6649 68.6877 38.3138 70.399 39.2145C72.0203 39.9351 72.3806 42.367 70.399 47.9514H67.4267Z" fill="#0D0C0C"/>
<path d="M112.063 73.4293V73.0444C111.806 73.0444 111.806 73.4293 112.063 73.4293V73.9425H111.678C111.293 75.9951 109.497 78.8176 108.086 79.8439C108.471 81.5117 105.905 82.7946 106.675 84.4624C105.905 84.8473 105.392 86.7716 105.648 87.9263C104.494 88.1828 104.878 89.9789 104.237 90.7487C108.599 87.0282 112.191 80.6136 119.375 79.8439C119.504 80.2288 119.76 80.7419 120.53 80.6136C121.043 81.1268 121.043 81.2551 121.3 81.7683C121.813 81.7683 122.198 81.7683 122.454 81.8966C124.764 86.8999 122.454 96.0086 126.945 99.6008C127.201 99.6008 126.945 98.9593 127.458 99.0876C127.33 99.4725 127.714 99.4725 127.843 99.8574C130.665 99.7291 133.231 99.3442 135.027 97.2916C143.751 91.9033 151.577 84.5907 160.3 78.6893C160.429 81.8966 156.708 82.538 155.81 85.2321C155.554 85.2321 155.425 84.9755 155.554 84.719C155.041 85.3604 154.014 85.4887 154.014 86.515C153.501 86.6433 152.603 86.7716 152.603 87.6697C152.346 87.6697 152.346 87.4131 152.09 87.2848C151.833 88.5677 150.55 87.9263 150.422 89.4658C151.192 89.2092 151.063 88.8243 151.962 88.696C151.833 90.3638 150.037 89.7223 149.652 91.1335C149.781 91.3901 149.909 91.1335 150.165 91.1335C150.037 92.1599 148.883 92.6731 148.241 92.6731C148.241 93.3145 148.883 93.4428 148.498 93.956C147.984 94.0843 147.984 93.5711 147.856 93.3145C147.215 95.4955 144.649 95.752 144.136 98.0613C143.879 98.0613 143.751 98.0613 143.623 97.933C141.57 100.884 137.465 103.834 133.488 104.989C123.737 105.246 119.632 96.2652 118.093 86.515C110.78 91.9033 106.546 100.242 100.517 106.913V107.811C99.4902 108.838 98.977 107.811 97.8224 107.683C96.6678 105.887 95.3849 103.193 95 101.14C96.4112 96.2652 98.2073 90.6204 99.4902 85.3604C99.3619 85.1038 99.2336 85.3604 98.977 85.3604C98.977 84.5907 98.3356 83.5643 99.2336 82.9229C99.4902 82.9229 99.6185 83.0512 99.6185 83.1795C101.799 79.9722 102.313 74.8405 102.826 70.7352C103.082 70.7352 102.954 70.9918 103.211 70.9918C103.724 68.5542 105.007 65.8601 104.622 63.6791C105.135 64.064 105.648 62.3962 105.007 62.1396C105.007 61.883 105.392 62.0113 105.52 62.1396C105.52 61.6265 105.52 61.2416 105.777 60.985C105.777 60.7284 105.263 60.8567 105.52 60.3435C106.803 59.7021 105.777 57.6494 106.931 56.8797C106.803 56.6231 106.675 56.7514 106.418 56.7514C106.931 56.6231 106.803 55.9816 107.188 55.725C107.188 55.2119 106.803 55.8533 106.675 55.4685C107.188 55.0836 107.444 54.5704 107.701 53.8007C107.701 53.4158 107.188 53.8007 107.316 54.0573C107.573 52.9026 107.829 51.4914 108.599 50.3368C108.471 49.8236 108.214 50.9783 108.086 50.3368C107.957 49.6953 108.342 49.567 108.856 49.4388C109.112 46.3598 110.395 44.5637 110.395 41.613C110.652 41.613 110.652 41.8695 110.908 41.7413C111.036 39.9452 111.935 38.1491 111.935 36.2247C112.191 36.2247 112.063 36.6096 112.319 36.7379C112.448 36.353 112.576 35.8398 112.704 35.455C112.576 35.0701 112.319 35.8398 112.319 35.9681C112.063 35.0701 113.217 34.172 113.474 33.1457C113.474 32.6325 112.961 33.5306 113.089 33.0174C112.961 32.5042 113.217 32.5043 113.474 32.6325C113.474 31.3496 114.372 30.7082 114.115 29.1687C114.629 29.1687 114.629 28.6555 114.885 28.3989C114.885 28.2706 114.629 28.1423 114.629 28.3989C115.27 26.3463 115.783 25.0633 116.681 22.3692C116.553 21.856 116.425 22.8824 116.296 23.0107C115.783 21.5995 118.093 20.958 117.194 19.4185H117.708C117.579 18.5205 117.451 17.3658 118.477 16.981C118.221 16.4678 118.349 16.4678 118.477 15.9546C118.734 16.8527 118.991 15.1849 119.247 14.6717C119.632 14.1585 119.76 13.6454 119.504 13.0039C122.839 8.25712 123.096 -0.723297 130.922 0.0464533C131.691 1.45766 133.488 1.84254 134.77 2.86887C137.08 6.71762 136.438 11.0795 135.668 15.698C135.155 15.5697 135.284 15.9546 135.027 16.0829C135.027 16.3395 135.155 16.5961 135.54 16.4678C135.027 17.1092 135.284 18.2639 134.642 18.5205C135.027 21.3429 132.974 24.4219 132.589 27.5009C132.333 27.7575 132.205 27.5009 131.82 27.5009V28.2706C131.948 28.1423 131.948 28.014 131.948 27.7575C132.589 29.297 130.793 30.9648 130.793 32.8891C130.409 33.1457 130.409 32.7608 129.767 32.8891C129.895 33.1457 130.28 33.1457 130.409 33.274C129.51 36.7379 127.714 39.5603 127.201 42.6393C126.945 42.511 126.688 42.2544 126.431 42.511C126.047 42.7676 127.073 43.0242 126.945 43.6656C126.431 44.692 125.02 45.59 125.662 46.8729H125.02C125.405 47.2578 125.02 47.6427 124.635 47.6427C124.764 48.1558 124.635 48.2841 124.635 48.7973C124.122 48.9256 124.122 48.669 123.866 48.669C123.866 49.0539 123.994 49.3105 124.379 49.3105C124.379 50.3368 122.968 50.3368 123.481 51.4914C122.198 51.6197 122.839 53.8007 121.556 53.929C122.326 55.3402 119.632 56.8797 120.402 58.2909C120.145 58.804 119.119 58.6758 119.375 59.8304C118.862 59.9587 118.991 59.4455 118.734 59.4455C119.119 60.4718 118.349 60.985 118.862 61.7548C116.168 64.1923 116.553 68.041 113.602 69.9654C113.602 70.222 114.115 70.0937 114.115 70.222C113.987 70.7352 113.731 71.2483 113.346 70.7352C113.859 72.0181 112.576 72.5313 112.319 73.4293H112.063V73.4293ZM127.971 3.38204C128.099 3.51033 127.843 3.38204 127.971 3.38204V3.38204ZM115.783 58.5475C115.912 58.804 116.04 58.5475 115.783 58.5475C117.708 54.6987 120.145 49.8236 121.813 44.692C122.07 44.692 122.326 45.3334 122.326 44.692C122.454 44.1788 121.813 44.5637 121.941 44.0505C125.149 37.3793 126.945 31.9911 129.382 24.6785C128.741 24.5502 129.126 25.3199 128.741 25.4482C129.895 18.9053 133.488 11.3361 132.333 3.25375C129.895 3.38204 129.639 6.33275 128.228 6.97421C125.79 12.3625 123.481 18.1356 121.3 23.3955C121.3 23.9087 121.556 24.1653 121.556 24.6785C119.889 26.7311 119.504 31.093 118.093 33.274C116.04 44.5637 111.293 56.2382 109.625 67.7845C112.063 63.2943 113.987 58.4192 116.681 54.1855C119.76 46.6163 123.609 37.3793 127.201 29.4253C123.994 40.7149 118.349 50.2085 114.757 60.6001C112.961 62.0113 112.063 65.6035 110.78 67.9128C112.191 67.2713 112.833 65.2186 113.089 63.8074C114.115 63.9357 114.372 61.883 114.372 60.8567C114.757 60.8567 114.757 61.1133 115.014 60.985C115.398 60.2153 115.27 59.1889 115.783 58.5475V58.5475ZM126.56 4.79325C126.303 4.40837 126.816 4.0235 126.303 3.89521C126.047 4.15179 126.047 4.92154 126.56 4.79325ZM125.662 5.4347C125.533 6.33275 125.79 4.79325 125.662 5.4347V5.4347ZM124.122 6.20445H124.635C124.635 5.94787 124.379 5.81958 124.122 5.94787V6.20445ZM126.175 6.46104C126.175 6.58933 126.047 6.46104 126.175 6.46104V6.46104ZM123.866 7.23079C123.737 8.25712 123.866 6.71762 123.866 7.23079V7.23079ZM122.454 9.15516C121.941 9.66833 122.968 9.54004 122.454 9.15516V9.15516ZM133.359 10.0532C133.488 10.1815 133.231 10.0532 133.359 10.0532V10.0532ZM121.941 10.5664V10.823C122.326 11.0795 122.454 10.3098 122.07 10.3098C122.07 10.4381 122.07 10.5664 121.941 10.5664ZM133.488 11.0795C133.744 10.9512 133.616 10.3098 133.231 10.3098C133.231 10.6947 133.231 11.0795 133.488 11.0795ZM121.813 11.8493V11.3361C121.172 11.2078 121.3 11.9776 121.813 11.8493ZM124.379 12.1059C123.994 12.619 124.892 11.721 124.379 12.1059V12.1059ZM121.172 12.619C121.685 12.7473 121.813 12.1059 121.3 12.1059C121.3 12.2342 121.172 12.3625 121.172 12.619ZM133.231 12.2342C133.359 12.3625 133.103 12.1059 133.231 12.2342V12.2342ZM122.326 13.3888C122.326 13.1322 122.711 13.1322 122.583 12.619C122.07 12.4907 121.941 13.2605 122.326 13.3888ZM133.103 12.8756C133.231 13.3888 133.231 12.2342 133.103 12.8756V12.8756ZM120.787 13.7737C120.787 13.902 120.787 14.0302 120.915 14.1585C121.3 14.1585 121.3 13.902 121.685 14.1585C121.813 13.5171 120.915 13.6454 120.787 13.7737ZM132.589 14.1585H133.359C133.359 13.7737 132.974 13.7737 132.589 13.7737V14.1585ZM122.454 15.1849C122.583 15.698 122.583 14.5434 122.454 15.1849V15.1849ZM119.375 16.981C120.145 17.1092 119.889 16.2112 120.273 15.9546C120.273 16.0829 120.273 16.4678 120.402 16.4678C120.658 16.3395 120.787 15.3132 120.145 15.4415C119.76 15.8263 119.632 16.4678 119.375 16.981ZM121.813 16.8527C122.198 17.4941 122.07 16.3395 121.813 16.8527V16.8527ZM119.247 18.5205C119.247 18.2639 119.76 17.4941 119.375 17.2375C119.119 17.4941 118.734 18.2639 119.247 18.5205ZM120.53 18.2639C120.658 18.2639 120.53 18.1356 120.53 18.2639V18.2639ZM120.017 18.6487H120.402C120.402 18.3922 120.273 18.2639 120.017 18.3922V18.6487ZM119.632 19.4185C119.632 19.0336 119.632 18.6487 119.247 18.6487C119.247 19.0336 119.375 19.2902 119.632 19.4185ZM118.734 19.9317C118.221 20.1882 117.708 20.958 117.964 21.4712C118.477 21.2146 118.606 20.5731 118.734 19.9317C118.991 19.8034 119.119 19.6751 119.247 19.4185C118.606 19.6751 119.119 18.777 118.734 18.777C118.477 19.1619 118.606 19.5468 118.734 19.9317ZM131.948 19.8034C132.589 19.8034 132.461 19.2902 132.076 19.1619C132.076 19.4185 132.076 19.6751 131.948 19.8034ZM119.504 20.7014C119.504 20.3165 119.632 20.1882 120.017 20.1882V19.9317C119.76 19.9317 119.76 19.8034 119.632 19.8034C119.504 19.9317 118.862 20.4448 119.504 20.7014ZM120.53 20.1882H120.915V19.9317H120.53V20.1882ZM130.152 20.958C129.895 21.856 130.793 21.0863 130.152 20.958V20.958ZM117.708 21.856C117.451 22.7541 118.349 21.9843 117.708 21.856V21.856ZM118.862 22.2409C119.375 22.7541 119.119 21.7277 118.862 22.2409V22.2409ZM129.767 22.3692H130.152V22.1126H129.767V22.3692ZM120.53 22.4975C120.787 23.139 120.787 21.856 120.53 22.4975V22.4975ZM118.093 23.0107C117.836 23.0107 117.836 22.7541 117.708 22.6258C117.579 23.0107 118.093 23.3955 118.093 23.0107ZM117.323 24.4219C117.451 24.037 117.964 23.139 117.323 23.0107C117.194 23.139 117.066 24.1653 117.323 24.4219ZM118.477 23.6521C118.862 23.7804 118.862 22.8824 118.477 23.139V23.6521ZM129.254 24.4219C129.639 24.5502 129.639 23.6521 129.254 23.9087V24.4219ZM118.862 24.935C119.247 25.1916 119.247 24.2936 118.991 24.4219C118.991 24.5502 118.862 24.6785 118.862 24.935ZM116.938 24.8067V25.1916C117.323 25.3199 117.323 24.6785 117.066 24.6785C117.066 24.8068 117.066 24.8067 116.938 24.8067ZM120.017 24.8067C120.017 24.935 119.889 24.8067 120.017 24.8067V24.8067ZM116.425 26.3462C116.81 26.218 117.194 26.0897 117.323 25.7048C117.066 25.7048 117.194 25.3199 116.681 25.4482C116.81 25.9614 116.296 25.8331 116.425 26.3462V26.3462ZM117.708 25.7048C117.708 25.8331 117.579 25.7048 117.708 25.7048V25.7048ZM117.708 26.4745C117.708 26.6028 117.579 26.4745 117.708 26.4745V26.4745ZM118.606 26.7311C118.734 27.2443 118.734 26.0897 118.606 26.7311V26.7311ZM117.451 26.9877C117.579 27.116 117.451 26.9877 117.451 26.9877V26.9877ZM116.425 27.6292C116.681 27.3726 116.553 26.8594 116.168 26.9877C116.04 27.3726 116.168 27.6292 116.425 27.6292ZM117.194 27.8858C117.579 28.1423 117.579 27.2443 117.323 27.2443C117.323 27.5009 117.066 27.6292 117.194 27.8858ZM115.527 30.0667C116.04 29.4252 116.04 28.3989 115.912 27.6292C115.783 28.2706 115.142 29.9384 115.527 30.0667ZM116.553 29.297C117.066 29.297 117.579 28.1423 117.066 28.014C117.066 28.6555 116.681 28.9121 116.553 29.297ZM116.296 29.4253C116.296 29.1687 116.81 28.6555 116.425 28.3989C116.425 28.6555 115.912 29.297 116.296 29.4253ZM117.708 30.5799C117.451 29.6818 118.606 29.0404 117.836 28.6555C117.708 29.1687 117.194 30.0667 117.708 30.5799ZM115.912 29.9384C116.04 30.0667 115.912 29.8101 115.912 29.9384V29.9384ZM116.553 29.9384C116.681 30.0667 116.553 29.8101 116.553 29.9384V29.9384ZM116.296 30.7082H116.553V30.3233H116.296V30.7082ZM114.757 32.376C114.885 31.7345 115.27 31.2213 115.655 30.8365C115.014 30.3233 114.115 32.1194 114.757 32.376V32.376ZM127.971 30.8365V31.093C128.356 31.3496 128.356 30.5799 128.099 30.7082C128.099 30.8365 128.099 30.8365 127.971 30.8365V30.8365ZM115.398 32.6325C115.398 32.376 115.655 31.9911 115.142 31.8628C115.27 32.1194 115.014 32.7608 115.398 32.6325ZM116.681 32.8891C116.81 32.8891 116.681 32.7608 116.681 32.8891V32.8891ZM113.987 33.9155C114.5 34.0438 114.372 33.4023 114.757 33.7872C114.885 33.274 114.5 33.1457 114.115 33.1457C114.244 33.5306 113.859 33.5306 113.987 33.9155V33.9155ZM115.398 34.8135C115.142 34.0438 116.553 33.6589 115.655 33.1457C115.655 33.7872 114.629 34.5569 115.398 34.8135ZM117.708 33.4023C117.708 33.5306 117.579 33.4023 117.708 33.4023V33.4023ZM114.885 33.7872C115.014 33.9155 114.757 33.6589 114.885 33.7872V33.7872ZM115.912 34.5569H116.296V34.172H115.912V34.5569ZM127.073 35.1984C127.33 35.0701 127.971 34.172 127.33 34.172C127.458 34.6852 126.816 34.5569 127.073 35.1984ZM114.372 34.6852H114.885C114.885 34.4286 114.757 34.3003 114.372 34.4286V34.6852ZM128.228 34.6852H128.612V34.4286H128.228V34.6852ZM116.938 34.9418C117.323 35.1984 117.323 34.3003 116.938 34.5569V34.9418ZM113.602 35.7115H114.244C113.859 35.3267 114.629 34.9418 113.987 34.8135C113.859 35.1984 113.731 35.455 113.602 35.7115ZM115.527 36.9945C115.912 36.9945 116.04 36.4813 116.296 36.2247C115.527 36.2247 116.425 35.3267 115.783 35.455C115.655 35.9681 115.655 36.6096 115.527 36.9945V36.9945ZM115.014 35.7115C115.142 35.8398 115.014 35.7115 115.014 35.7115V35.7115ZM116.425 36.0964C117.066 36.2247 116.425 35.5833 116.425 36.0964V36.0964ZM113.217 38.0208C113.474 37.5076 113.089 38.6623 113.602 38.4057C113.731 37.5076 113.731 37.251 113.602 36.353C113.474 36.353 113.217 36.353 113.217 36.4813C113.731 36.8662 112.576 37.6359 113.217 38.0208ZM116.168 36.8662C116.296 37.5076 116.296 36.2247 116.168 36.8662V36.8662ZM114.115 37.8925C114.244 38.0208 113.987 37.8925 114.115 37.8925V37.8925ZM113.859 39.1754C114.5 39.1754 114.244 38.4057 113.987 38.0208C113.731 38.2774 113.859 38.7905 113.859 39.1754ZM116.296 38.6623C116.296 38.2774 116.04 38.1491 115.783 38.0208C115.783 38.4057 116.04 38.534 116.296 38.6623ZM112.448 39.8169C112.961 39.6886 112.833 39.3037 113.346 39.5603C113.346 39.1754 113.346 38.9188 113.217 38.6623H112.704C113.089 39.3037 112.448 39.1754 112.448 39.8169ZM125.02 39.432C125.149 39.5603 125.02 39.432 125.02 39.432V39.432ZM112.704 40.7149C112.704 40.4583 112.961 40.33 112.704 40.2017C112.704 40.4583 112.448 40.5866 112.704 40.7149ZM114.115 40.7149H114.372V40.33H114.115V40.7149ZM112.063 41.4847C111.421 41.3564 112.063 41.8695 112.063 41.4847C112.448 41.4847 112.191 41.9978 112.704 41.8695C112.961 41.613 112.704 40.7149 112.319 40.7149C112.191 40.8432 112.063 41.0998 112.063 41.4847ZM115.014 41.3564C114.629 41.8695 115.527 40.9715 115.014 41.3564V41.3564ZM114.372 41.8695C114.372 41.613 114.244 41.4847 114.115 41.4847C114.115 41.7413 114.244 41.8695 114.372 41.8695ZM111.55 42.2544C111.421 42.511 111.55 42.7676 111.678 42.8959C112.063 42.8959 112.448 42.1261 111.935 42.1261C111.935 42.2544 111.678 42.2544 111.55 42.2544ZM113.346 43.9222C113.731 43.7939 113.987 42.7676 113.859 42.511C113.474 42.7676 113.474 43.409 113.346 43.9222ZM123.866 43.2808C124.379 43.2808 124.507 42.7676 124.122 42.511C124.251 43.0242 123.737 42.8959 123.866 43.2808ZM111.293 43.6656H111.806C111.806 43.1525 111.806 42.8959 111.293 43.0242V43.6656ZM112.319 43.6656V43.9222C112.704 44.1788 112.704 43.409 112.448 43.409C112.448 43.5373 112.448 43.6656 112.319 43.6656V43.6656ZM125.405 43.409C125.149 44.3071 126.047 43.5373 125.405 43.409V43.409ZM111.806 43.9222C111.935 44.0505 111.678 43.9222 111.806 43.9222V43.9222ZM122.454 44.1788C122.454 44.1788 122.454 44.0505 122.583 44.0505C122.583 43.9222 122.583 43.6656 122.326 43.7939C122.326 43.9222 122.198 44.1788 122.454 44.1788V44.1788ZM123.481 43.9222C123.737 44.5637 123.737 43.2808 123.481 43.9222V43.9222ZM110.78 46.2315C111.293 45.8466 111.678 45.2051 111.678 44.1788C111.421 44.1788 111.421 44.0505 111.165 44.0505C110.78 44.5637 110.908 45.59 110.78 46.2315V46.2315ZM114.115 44.4354C114.244 44.4354 113.987 44.3071 114.115 44.4354V44.4354ZM112.704 45.2051C113.217 45.3334 112.961 45.3334 112.833 45.7183C113.346 45.59 113.474 45.2051 113.602 44.692C113.346 44.4354 112.833 44.8203 112.704 45.2051ZM112.063 44.8203C112.576 45.3334 112.319 44.3071 112.063 44.8203V44.8203ZM111.935 45.7183C111.806 46.7446 112.063 45.2051 111.935 45.7183V45.7183ZM111.165 46.3598H111.55V46.1032H111.165V46.3598ZM124.379 46.2315C123.994 46.7446 124.892 45.8466 124.379 46.2315V46.2315ZM122.07 46.3598C122.711 46.488 122.198 45.9749 122.07 46.3598V46.3598ZM122.711 46.7446C123.096 46.7446 123.224 46.488 123.352 46.2315C122.968 46.2315 122.711 46.2315 122.711 46.7446ZM123.481 46.488C123.609 46.6163 123.481 46.488 123.481 46.488V46.488ZM112.704 47.1295C112.833 47.0012 113.089 46.6163 112.704 46.488C112.704 46.6163 112.319 47.1295 112.704 47.1295ZM110.395 47.1295H110.908C110.908 46.8729 110.78 46.7446 110.395 46.8729V47.1295ZM124.764 47.0012C124.892 47.1295 124.635 47.0012 124.764 47.0012V47.0012ZM110.908 47.771C111.165 48.4124 111.165 48.2841 110.908 48.7973C111.55 48.7973 111.806 47.5144 111.55 47.0012C111.293 47.2578 111.421 47.8993 110.908 47.771ZM121.556 47.6427C121.556 47.771 121.428 47.5144 121.556 47.6427V47.6427ZM110.01 49.4388C110.01 49.0539 110.908 47.8993 110.138 47.6427C110.267 48.2841 109.112 49.1822 110.01 49.4388ZM122.839 47.771C123.352 48.2841 123.096 47.2578 122.839 47.771V47.771ZM121.813 48.5407H122.326C122.198 48.2841 122.454 47.771 121.941 47.8993C121.941 48.1558 121.685 48.2841 121.813 48.5407ZM121.3 48.7973C121.3 48.5407 121.813 48.1558 121.172 48.2841C121.172 48.4124 121.172 48.7973 121.3 48.7973ZM121.685 49.1822C122.198 49.6953 121.941 48.669 121.685 49.1822V49.1822ZM111.55 51.3631C111.55 51.2348 111.678 51.1065 111.806 51.1065C111.678 50.5934 111.806 50.3368 111.935 49.9519C111.421 49.9519 111.036 51.2348 111.55 51.3631V51.3631ZM109.369 50.85C109.754 50.7217 110.395 50.85 110.267 50.2085C109.882 50.3368 109.24 50.3368 109.369 50.85V50.85ZM110.523 50.3368C110.01 50.9783 111.293 49.567 110.523 50.3368V50.3368ZM121.556 50.9783C121.813 50.9783 121.813 51.2348 122.07 51.1065C122.198 50.5934 121.556 50.5934 121.556 50.9783ZM108.727 51.8763C109.112 52.3895 109.112 53.2875 109.497 53.6724C109.24 52.646 110.01 51.8763 109.497 51.3631C109.369 52.0046 108.984 51.4914 108.727 51.8763ZM110.395 51.4914C110.523 51.6197 110.395 51.3631 110.395 51.4914V51.4914ZM120.017 51.4914C120.017 51.6197 119.889 51.3631 120.017 51.4914V51.4914ZM120.402 51.748C120.658 52.3895 120.658 51.1065 120.402 51.748V51.748ZM108.856 53.1592C109.112 52.9026 109.112 52.646 108.727 52.5178C108.727 52.7743 108.727 53.1592 108.856 53.1592ZM110.01 53.0309C109.882 53.929 110.01 52.3895 110.01 53.0309V53.0309ZM118.991 53.4158C119.119 53.5441 118.991 53.4158 118.991 53.4158V53.4158ZM108.471 53.929C108.471 54.5704 108.214 54.9553 107.957 55.3402C107.957 55.725 108.342 55.8533 108.599 56.1099C108.856 55.725 108.342 55.5968 108.471 55.2119C108.599 55.2119 108.727 55.2119 108.856 55.3402C108.984 54.9553 108.471 54.3138 108.856 54.0573C108.856 54.3138 108.856 54.5704 108.984 54.5704C109.369 54.1855 109.369 53.8007 108.856 53.6724C108.856 53.8007 108.599 53.8007 108.471 53.929V53.929ZM119.504 54.0573C119.119 54.5704 120.017 53.6724 119.504 54.0573V54.0573ZM109.497 55.3402C109.625 55.4685 109.369 55.2119 109.497 55.3402V55.3402ZM109.24 55.9816C109.369 56.4948 109.625 55.3402 109.24 55.9816V55.9816ZM107.957 57.2645C108.342 57.2645 108.984 56.7514 108.599 56.3665C108.471 56.8797 108.214 56.2382 107.957 56.3665C107.701 56.6231 107.701 57.1363 107.957 57.2645ZM110.138 57.5211C109.882 57.008 110.652 56.4948 110.01 56.4948C110.01 56.8797 109.754 57.3928 110.138 57.5211ZM117.708 58.0343C117.708 58.0343 118.093 57.5211 117.708 57.5211C117.579 57.5211 117.323 58.0343 117.708 58.0343ZM106.675 61.1133C107.444 60.985 107.188 60.087 107.316 59.5738C107.573 59.7021 107.829 59.5738 107.957 59.4455C107.829 58.804 108.471 58.0343 107.701 57.906C107.188 58.6758 106.931 60.2153 106.675 61.1133V61.1133ZM109.369 58.6758C109.754 58.804 110.138 57.7777 109.497 57.906C109.625 58.4192 109.24 58.2909 109.369 58.6758ZM108.471 58.804C108.856 59.0606 109.112 58.1626 108.727 58.0343C108.599 58.2909 108.599 58.6758 108.471 58.804ZM117.708 59.8304V60.087H117.964C117.964 59.9587 117.964 59.9587 118.093 59.9587V59.5738H117.836C117.836 59.7021 117.836 59.8304 117.708 59.8304V59.8304ZM115.398 61.1133C115.398 61.2416 115.27 61.1133 115.398 61.1133V61.1133ZM107.059 61.7548C107.444 61.883 107.444 61.4982 107.444 61.1133C107.059 61.1133 107.059 61.4982 107.059 61.7548V61.7548ZM106.29 63.166C106.803 63.4225 107.059 62.6528 106.675 62.3962C106.675 62.5245 106.675 62.7811 106.418 62.6528C106.29 62.1396 107.316 61.7548 106.546 61.4982C106.546 62.1396 105.905 62.5245 106.29 63.166ZM107.701 61.6265C107.701 61.7548 107.573 61.6265 107.701 61.6265V61.6265ZM115.398 61.6265C115.398 61.7548 115.27 61.6265 115.398 61.6265V61.6265ZM107.188 63.0377C107.573 63.0377 107.701 62.6528 107.957 62.3962C107.573 62.5245 107.188 62.5245 107.188 63.0377ZM108.599 63.166C108.727 63.2943 108.471 63.166 108.599 63.166V63.166ZM117.194 63.166C117.323 63.2943 117.066 63.166 117.194 63.166V63.166ZM106.931 63.4225C107.573 63.6791 106.931 63.0377 106.931 63.4225V63.4225ZM105.648 65.4752C106.161 65.3469 106.29 64.7055 106.418 64.064C106.161 64.064 106.161 63.6791 105.777 63.8074C105.777 64.4489 105.777 65.0903 105.648 65.4752ZM115.783 66.245C115.783 65.8601 116.681 65.0903 115.912 64.962C116.168 65.6035 115.27 65.8601 115.783 66.245ZM105.135 66.5015C105.52 66.5015 105.392 67.0147 105.777 66.8864C106.033 66.6298 106.033 66.1167 105.648 66.1167C105.648 66.5015 105.135 66.245 105.135 66.5015V66.5015ZM107.316 66.7581C107.573 66.7581 107.701 66.6298 107.829 66.3733C107.573 66.3733 107.444 66.5015 107.316 66.7581ZM112.448 66.8864V67.143H112.704C112.833 67.0147 112.833 66.7581 112.576 66.7581C112.576 66.7581 112.576 66.8864 112.448 66.8864V66.8864ZM105.007 67.6562C105.135 67.7845 105.007 67.5279 105.007 67.6562V67.6562ZM114.885 67.7845C115.014 68.4259 115.014 67.143 114.885 67.7845V67.7845ZM111.036 73.0444C111.293 73.1727 111.678 72.6595 111.293 72.5313C111.293 72.7878 110.908 72.6596 111.036 73.0444ZM109.625 73.8142C109.882 74.4556 109.882 73.1727 109.625 73.8142V73.8142ZM110.138 76.5083C110.267 76.38 110.395 75.8668 110.01 75.7385C109.754 75.9951 109.882 76.38 110.138 76.5083ZM159.659 79.8439C159.787 79.8439 159.659 79.7156 159.659 79.8439V79.8439ZM156.323 83.1795C157.221 82.9229 157.606 82.1531 158.12 81.5117C157.35 81.8965 156.708 82.4097 156.323 83.1795ZM114.629 82.6663C115.014 83.1795 114.885 82.1531 114.629 82.6663V82.6663ZM115.912 83.4361C116.425 83.6926 116.425 82.7946 115.912 83.0512V83.4361ZM155.169 83.6926V83.9492H155.554C155.682 83.6926 155.682 83.5643 155.425 83.4361C155.297 83.5643 155.297 83.6926 155.169 83.6926V83.6926ZM154.399 84.719C154.527 84.4624 155.041 84.5907 154.912 84.0775C154.527 84.0775 154.014 84.5907 154.399 84.719V84.719ZM152.603 86.1302C152.86 86.2585 154.656 85.1038 153.886 84.719C153.629 85.3604 152.475 85.2321 152.603 86.1302ZM112.319 86.515C112.319 86.2585 113.217 85.8736 112.576 85.617C112.576 85.8736 111.806 86.2585 112.319 86.515ZM145.675 91.3901C147.856 89.7223 151.063 87.798 152.09 86.1302C150.037 87.9263 147.471 89.2092 145.675 91.3901ZM110.78 87.6697C111.036 88.0546 112.319 86.7716 111.55 86.515C111.55 87.2848 110.78 87.0282 110.78 87.6697V87.6697ZM108.984 87.9263C109.112 87.6697 109.882 87.4131 109.24 87.1565C109.112 87.4131 108.599 87.798 108.984 87.9263ZM110.138 88.5677C110.652 88.5677 110.652 88.1828 110.78 87.798H110.267C110.267 88.1828 110.01 88.1828 110.138 88.5677ZM108.214 88.3111V88.5677C108.599 88.8243 108.727 88.0545 108.471 88.0545C108.342 88.1828 108.342 88.3111 108.214 88.3111ZM101.543 91.1335C101.415 90.1072 102.313 89.3375 101.928 88.4394C101.671 89.0809 100.388 90.6204 101.543 91.1335ZM109.497 88.696C110.01 89.2092 109.754 88.1828 109.497 88.696V88.696ZM107.829 89.0809C107.957 89.0809 107.701 88.9526 107.829 89.0809V89.0809ZM106.546 90.2355C107.059 90.1072 107.444 89.7223 107.444 89.2092C106.931 89.3375 106.803 89.8506 106.546 90.2355ZM108.471 90.2355C108.727 90.1072 109.112 89.8506 109.24 89.3375C108.727 89.4658 108.342 89.7223 108.471 90.2355ZM149.781 90.1072C150.037 89.9789 150.165 89.7223 150.165 89.3375C149.396 89.0809 149.139 90.1072 149.781 90.1072ZM148.754 90.7487C149.139 91.0053 149.139 89.9789 148.754 90.2355V90.7487ZM107.316 91.5184C107.701 91.2618 108.214 91.1336 108.086 90.3638C107.573 90.4921 107.059 91.2618 107.316 91.5184ZM105.392 91.3901C105.777 91.3901 106.033 91.2618 105.905 90.877C105.648 91.0053 105.263 90.877 105.392 91.3901ZM147.471 91.775C147.984 91.775 149.011 91.2618 148.241 91.0053C148.241 91.5184 147.343 91.1335 147.471 91.775ZM103.98 91.3901C104.109 91.3901 103.852 91.2618 103.98 91.3901V91.3901ZM143.238 93.4428C144.007 92.8013 144.905 92.2882 145.547 91.3901C144.777 91.5184 143.623 92.4165 143.238 93.4428ZM100.773 92.6731C100.517 92.6731 100.388 92.6731 100.26 92.5448C100.26 93.0579 100.003 93.4428 100.388 93.6994C100.773 92.9296 101.286 92.0316 100.517 91.3901C100.132 91.775 100.901 92.0316 100.773 92.6731ZM103.852 93.6994C104.109 92.9296 104.878 92.673 105.135 91.775C104.494 92.0316 103.596 92.9296 103.852 93.6994V93.6994ZM106.29 92.5448C106.675 92.8013 106.675 91.9033 106.29 92.1599V92.5448ZM105.777 92.9296C105.905 92.9296 105.777 92.8013 105.777 92.9296V92.9296ZM142.596 93.956C142.725 93.6994 142.853 93.5711 142.853 93.3145C142.468 93.3145 141.955 93.8277 142.596 93.956ZM100.132 95.2389C99.8751 94.5974 100.517 94.0843 100.132 93.8277C100.003 94.2125 99.1053 95.1106 100.132 95.2389ZM141.57 94.5974H141.826V94.2126H141.57V94.5974ZM140.928 94.854C140.544 95.3672 141.442 94.4691 140.928 94.854V94.854ZM99.3619 96.2652C99.7468 96.5218 99.7468 95.6238 99.3619 95.7521V96.2652ZM98.977 97.5481H99.3619V97.1633H98.977V97.5481V97.5481ZM119.247 14.6717C118.606 14.6717 119.247 14.0302 119.247 14.6717V14.6717ZM116.553 21.3429C116.681 21.3429 116.553 21.2146 116.553 21.3429V21.3429ZM128.228 26.218C128.099 27.116 128.356 25.5765 128.228 26.218V26.218ZM127.843 26.9877C127.971 27.116 128.099 27.2443 128.099 27.5009C127.843 27.5009 127.843 27.2443 127.843 26.9877ZM127.33 28.7838C127.843 28.5272 126.945 29.297 127.33 28.7838V28.7838ZM110.138 42.6393C110.267 42.7676 110.01 42.6393 110.138 42.6393V42.6393ZM109.24 46.1032C109.497 45.9749 109.369 46.7446 108.984 46.488V46.2315C109.112 46.2315 109.112 46.2315 109.24 46.1032V46.1032ZM108.856 47.1295C109.112 47.1295 109.112 48.0275 108.727 47.771C108.727 47.5144 108.856 47.5144 108.856 47.1295ZM103.596 68.041C103.724 68.1693 103.596 68.041 103.596 68.041V68.041ZM114.115 69.5806C114.5 69.0674 114.372 70.0937 114.115 69.5806V69.5806ZM153.629 87.0282C154.271 86.8999 153.886 87.5414 153.886 87.6697C153.629 87.5414 153.758 87.2848 153.629 87.0282ZM153.501 87.6697C153.373 88.0546 152.988 88.1828 152.603 88.4394C152.731 87.9263 152.988 87.6697 153.501 87.6697ZM150.807 90.6204C150.165 91.1335 151.32 89.9789 150.807 90.6204V90.6204ZM210.976 83.3078C210.976 83.6926 210.591 83.6926 210.591 83.9492C210.719 83.9492 210.847 84.0775 210.976 84.0775C211.617 83.3078 212.259 83.0512 213.67 82.6663C212.772 85.2321 211.104 87.6697 209.436 89.3375C205.074 92.4165 200.584 97.2916 194.683 98.8311C188.525 99.9857 185.831 95.3672 184.676 89.594C178.133 94.2125 173.899 100.884 165.56 103.706C159.274 103.963 158.12 95.8803 159.274 90.3638C160.942 85.4887 162.738 79.7156 164.278 74.9688C164.919 74.5839 165.304 73.9425 165.945 73.4293C166.972 74.199 167.998 74.8405 168.639 75.7385C167.613 84.9755 163.251 90.2355 162.353 98.3179C162.353 98.7028 162.995 98.4462 163.123 98.7028C171.462 95.1106 178.005 87.6697 184.676 82.4097C185.189 82.2814 184.548 82.0248 184.676 81.7683C186.472 82.538 187.37 84.0775 189.294 85.3604C188.781 87.6697 188.781 90.1072 188.91 93.1862C195.196 95.2389 199.943 88.5677 204.818 86.2585C205.587 85.2321 206.87 84.719 207.512 83.4361C207.897 83.3078 207.897 83.6926 208.282 83.6926C209.051 82.0248 211.361 80.7419 212.9 79.3307C212.002 79.2024 212.002 79.9722 211.232 79.9722C211.874 78.561 213.157 77.9195 214.055 76.8932C214.568 77.278 213.798 78.0478 213.67 78.4327C213.798 78.8175 214.055 78.1761 214.44 78.4327C214.055 79.459 214.311 80.2288 213.285 80.3571C213.157 80.8702 213.798 80.4853 213.67 80.9985C213.285 81.1268 213.157 81.2551 213.028 81.64C212.643 81.64 212.643 81.2551 212.9 80.9985C212.259 81.2551 211.745 81.64 211.489 82.2814C212.002 82.6663 212.259 81.8966 212.772 81.8966C212.772 82.6663 211.874 82.4097 211.745 83.0512C211.361 83.1795 211.489 82.6663 211.361 82.538C211.104 82.6663 210.847 82.9229 210.719 83.1795C210.719 83.3078 210.847 83.3078 210.976 83.3078V83.3078ZM213.157 79.2024H213.542V78.8175H213.157V79.2024ZM210.078 83.8209C210.463 83.9492 210.847 83.436 210.463 83.3078C210.334 83.5643 209.949 83.436 210.078 83.8209ZM209.436 84.2058H209.949V83.8209H209.436V84.2058ZM210.463 84.8473C210.591 84.5907 210.591 84.2058 210.078 84.2058C210.078 84.5907 210.078 84.8473 210.463 84.8473ZM208.41 85.3604C209.18 85.3604 208.795 84.5907 208.41 84.5907V85.3604ZM208.538 85.7453C209.308 85.7453 209.308 84.9756 209.949 85.617C210.206 85.3604 209.949 84.719 209.693 84.5907C209.308 85.1038 208.795 85.2321 208.538 85.7453ZM207.512 86.7716C207.64 86.2585 208.282 86.2585 208.41 85.7453C207.897 85.8736 207.127 86.3868 207.512 86.7716ZM182.11 87.0282C182.11 86.7716 182.238 86.6433 182.238 86.3868C181.597 86.515 181.469 87.0282 181.212 87.5414C179.801 87.4131 178.646 88.9526 177.492 89.4658C177.62 89.9789 177.62 90.2355 177.363 90.6204C177.748 91.0053 177.748 90.1072 178.261 90.2355C178.261 90.6204 177.363 90.877 177.748 91.1335C178.261 90.7487 178.774 90.3638 179.416 90.1072C179.031 89.2092 179.929 88.5677 180.186 87.9263C180.571 88.3111 180.955 87.798 181.212 87.5414C181.725 87.5414 181.469 86.8999 182.11 87.0282C182.11 87.5414 182.11 88.0545 181.597 87.9263C181.597 87.798 181.725 87.798 181.725 87.6697C181.084 87.798 181.084 88.696 180.442 88.8243C180.699 88.9526 180.955 89.0809 181.34 89.2092C181.597 88.8243 181.084 88.3111 181.597 88.0545C182.495 88.5677 182.88 86.7716 183.778 87.2848C183.778 87.0282 183.906 87.0282 183.906 86.8999C183.265 86.8999 184.291 86.3868 183.65 86.1302C183.521 86.6433 183.136 86.8999 182.495 86.515C182.623 86.8999 182.367 87.0282 182.11 87.0282ZM184.548 86.7716C184.548 86.3868 184.291 86.2585 184.034 86.1302C184.034 86.5151 184.163 86.7716 184.548 86.7716ZM206.87 86.515C206.999 86.6433 206.742 86.515 206.87 86.515V86.515ZM180.827 86.8999C180.955 87.0282 180.827 86.7716 180.827 86.8999V86.8999ZM206.999 86.8999C207.255 87.5414 207.255 86.2585 206.999 86.8999V86.8999ZM180.186 87.2848C180.314 87.4131 180.186 87.2848 180.186 87.2848V87.2848ZM204.305 87.9263C204.176 88.3111 204.561 88.3111 204.561 88.5677C205.203 88.3111 205.844 88.1828 205.972 87.2848C204.946 87.1565 204.946 88.3111 204.305 87.9263V87.9263ZM204.561 89.0809C205.074 89.4658 204.818 88.4394 204.561 89.0809V89.0809ZM179.801 89.2092C179.416 89.7223 180.314 88.8243 179.801 89.2092V89.2092ZM179.673 89.8506C180.057 90.2355 179.929 89.2092 179.673 89.8506V89.8506ZM176.337 92.4165C176.209 91.6467 176.85 91.0053 177.107 91.6467C178.133 90.1072 174.797 91.775 176.337 92.4165ZM173.515 94.2126C173.899 93.8277 174.156 93.3145 175.054 93.3145C174.797 92.673 175.567 92.8013 175.439 92.2882C174.669 92.673 173.386 93.4428 173.515 94.2126ZM172.232 94.7257V94.9823H172.488C172.488 94.9823 172.616 94.854 172.745 94.854V94.5974H172.36C172.36 94.5974 172.36 94.7257 172.232 94.7257V94.7257ZM207.768 83.1795C207.897 83.3078 207.768 83.0512 207.768 83.1795V83.1795ZM210.976 83.3078C211.232 83.1795 210.976 83.1795 210.976 83.3078V83.3078ZM178.903 89.594C179.416 89.2092 178.518 90.1072 178.903 89.594V89.594ZM224.19 76.5083C224.061 76.5083 224.061 76.5083 224.061 76.6366C224.19 76.6366 224.19 76.6366 224.19 76.5083C226.499 75.3537 226.884 72.403 230.733 72.7878C232.144 73.8142 232.914 75.482 234.196 76.6366C234.838 82.2814 231.502 86.8999 230.348 93.1862C237.532 89.4658 241.381 82.2814 249.207 79.0741C250.618 80.6136 252.542 81.5117 253.44 83.5643C253.312 83.5643 253.312 83.3078 253.184 83.3078C254.082 87.5414 251.259 90.877 252.286 94.7257C258.059 97.2916 267.809 90.877 271.016 88.5677C276.02 86.0019 280.253 81.3834 285 78.0478C285 80.4853 282.691 83.3078 280.895 83.4361C281.023 84.2058 280.51 84.4624 280.125 85.1038C281.408 84.719 281.408 83.8209 283.076 83.6926C282.819 84.4624 281.664 84.719 282.434 85.4887C276.276 91.775 268.579 96.5218 259.727 100.114C256.519 100.499 254.338 100.371 251.259 98.9593C251.003 98.3179 250.49 97.933 249.976 97.4198C248.437 94.3408 247.795 90.2355 248.18 86.0019C245.999 88.1828 242.407 89.8506 239.97 92.8013C237.019 96.2652 233.298 100.627 228.552 99.0876C227.654 98.1896 227.269 96.5218 226.371 95.6238C225.473 89.0809 227.782 84.719 228.937 79.5873C222.394 85.8736 218.673 94.854 214.824 103.706C213.926 103.706 213.798 104.219 213.028 103.963C212.515 103.065 211.745 102.423 211.874 100.884C210.463 98.831 211.617 95.6238 212.515 93.3145C214.824 87.4131 217.775 80.4853 218.93 74.7122C218.16 73.4293 218.417 71.8898 219.315 70.9918C222.65 70.9918 223.42 73.8142 224.19 76.5083V76.5083ZM282.049 82.0248C280.766 82.7946 279.099 83.3078 278.457 84.8473C278.201 84.8473 278.329 84.5907 278.201 84.4624C277.046 84.719 276.533 85.617 275.635 86.2585C276.661 87.1565 277.431 84.9755 278.457 85.4887V84.8473C278.842 85.1038 278.842 84.4624 279.355 84.8473C279.227 83.9492 279.997 84.2058 280.253 83.6926C280.253 84.0775 280.253 84.2058 280.51 84.2058C280.381 82.7946 281.664 82.7946 282.049 82.0248C282.306 81.7683 282.947 81.8966 282.819 81.3834C282.562 81.5117 282.049 81.5117 282.049 82.0248V82.0248ZM246.897 82.4097C247.026 82.538 247.667 82.538 247.924 82.4097C247.924 81.8966 247.795 81.64 247.282 81.64C247.411 82.1531 246.641 81.7683 246.897 82.4097ZM245.871 82.6663C245.999 82.7946 245.871 82.538 245.871 82.6663V82.6663ZM246.641 82.9229C246.769 82.7946 247.026 82.6663 246.641 82.538C246.641 82.6663 246.384 82.7946 246.641 82.9229ZM243.818 85.1038C245.101 85.1038 244.973 83.5643 246.384 83.5643C246.384 83.3078 246.384 82.9229 245.871 82.9229C245.358 83.8209 244.203 84.0775 243.818 85.1038ZM242.535 86.3868C243.049 86.0019 243.305 85.4887 243.562 84.9756C242.792 84.9756 242.664 85.7453 242.535 86.3868ZM279.997 85.617C279.483 86.0019 279.355 85.4887 278.842 85.4887C277.816 86.6433 275.378 86.7716 275.506 88.3111C276.533 87.6697 278.201 85.7453 279.227 86.3868C278.842 86.3868 278.201 86.1302 278.457 86.6433C278.842 86.6433 279.099 86.6433 279.227 86.3868C279.483 86.1302 279.997 86.1302 279.997 85.617H280.253V85.2321C279.997 85.2321 279.997 85.3604 279.997 85.617ZM228.68 85.8736C228.937 86.3868 229.065 85.2321 228.68 85.8736V85.8736ZM275.635 87.0282C275.635 86.6433 275.506 86.3868 275.378 86.2585C275.378 86.5151 275.122 87.1565 275.635 87.0282ZM274.737 86.515C274.48 86.6433 274.737 86.6433 274.737 86.515C274.993 86.3868 274.737 86.3868 274.737 86.515ZM241.637 86.7716C241.766 86.7716 241.766 86.8999 241.894 87.0282C241.894 86.7716 241.894 86.3868 241.637 86.515V86.7716ZM228.423 87.9263C228.423 87.6697 228.68 87.5414 228.423 87.4131C228.295 87.6697 228.167 87.798 228.423 87.9263ZM227.654 89.8506C227.654 89.5941 228.038 89.7223 227.91 89.3375C227.525 89.2092 227.269 89.8506 227.654 89.8506ZM271.529 90.4921H271.786V90.2355H271.529V90.4921ZM283.589 82.9229C283.974 83.1795 283.589 83.6926 283.204 83.5643C283.076 83.0512 283.717 83.4361 283.589 82.9229Z" fill="#0D0C0C"/>
</g>
<defs>
<clipPath id="clip0">
<rect width="285" height="108.263" fill="white"/>
</clipPath>
</defs>
</svg>
